<svg xmlns="http://www.w3.org/2000/svg" xmlns:xlink="http://www.w3.org/1999/xlink" width="2945.434" height="2931.02" viewBox="0 0 2945.434 2931.02">
  <defs>
    <clipPath id="clip-path">
      <rect width="2945.434" height="2931.02" fill="none"/>
    </clipPath>
  </defs>
  <g id="Grupo_13" data-name="Grupo 13" transform="translate(-2697 -1130)">
    <g id="Grupo_12" data-name="Grupo 12">
      <g id="Grupo_11" data-name="Grupo 11" transform="translate(-20)">
        <g id="Grupo_10" data-name="Grupo 10" transform="translate(3156 1844)">
          <g id="Grupo_9" data-name="Grupo 9">
            <g id="Grupo_8" data-name="Grupo 8">
              <g id="Grupo_7" data-name="Grupo 7">
                <g id="Grupo_6" data-name="Grupo 6">
                  <g id="Grupo_5" data-name="Grupo 5">
                    <g id="Grupo_4" data-name="Grupo 4">
                      <g id="Grupo_3" data-name="Grupo 3">
                        <g id="Grupo_2" data-name="Grupo 2">
                          <g id="Grupo_1" data-name="Grupo 1">
                            <g id="Repetição_de_grade_1" data-name="Repetição de grade 1" transform="translate(-439 -714)" clip-path="url(#clip-path)">
                              <g transform="translate(439 714)">
                                <path id="logo" d="M1539.93,1369.15c-809.356,0-1465.5,656.126-1465.5,1465.48,0,809.443,656.144,1465.54,1465.5,1465.54,809.392,0,1465.5-656.091,1465.5-1465.54,0-809.3-656.074-1465.41-1465.52-1465.41l.018-.07ZM2212,3482.8a91.294,91.294,0,0,1-125.6,30.4c-344.137-210.332-777.3-257.845-1287.42-141.312a91.313,91.313,0,1,1-40.652-178.044c558.249-127.628,1037.1-72.7,1423.38,163.344a91.341,91.341,0,0,1,30.275,125.65l.018-.035Zm179.374-398.981c-33.145,53.777-103.46,70.647-157.167,37.624-393.837-242.094-994.384-312.217-1460.32-170.781a114.244,114.244,0,1,1-66.395-218.628c532.227-161.489,1193.86-83.265,1646.24,194.723,53.726,33.075,70.7,103.425,37.625,157.079l.018-.017Zm15.4-415.52c-472.4-280.542-1251.6-306.337-1702.56-169.47A137.064,137.064,0,1,1,624.641,2236.5c517.667-157.149,1378.23-126.787,1922.02,196.035a137.072,137.072,0,0,1,47.9,187.827c-38.5,65.135-122.85,86.607-187.774,47.933h-.017Zm1654.8,53.751c-253.033-60.34-298.078-102.689-298.078-191.678,0-84.069,79.152-140.646,196.857-140.646,114.1,0,227.237,42.962,345.852,131.407a16.54,16.54,0,0,0,12.513,3.045,16.346,16.346,0,0,0,10.938-6.755l123.55-174.16a16.6,16.6,0,0,0-3.15-22.54c-141.172-113.277-300.142-168.35-485.956-168.35-273.21,0-464.047,163.957-464.047,398.545,0,251.562,164.622,340.637,449.1,409.394,242.13,55.772,282.993,102.5,282.993,186.025,0,92.557-82.636,150.1-215.618,150.1-147.7,0-268.169-49.752-402.937-166.46a17.358,17.358,0,0,0-12.162-3.954,16.432,16.432,0,0,0-11.375,5.845l-138.53,164.867a16.435,16.435,0,0,0,1.646,22.978c156.8,139.982,349.648,213.92,557.759,213.92,294.4,0,484.644-160.86,484.644-409.832.525-210.175-125.3-326.55-433.474-401.52l-.527-.228ZM5161.62,2472.5c-127.609,0-232.277,50.26-318.587,153.247v-115.92a16.6,16.6,0,0,0-16.555-16.607H4599.906a16.588,16.588,0,0,0-16.555,16.607V3797.86a16.587,16.587,0,0,0,16.555,16.607h226.572a16.6,16.6,0,0,0,16.555-16.607V3391.283c86.328,96.88,191.013,144.218,318.587,144.218,237.107,0,477.138-182.524,477.138-531.439.35-349-239.75-531.579-476.875-531.579l-.263.017Zm213.675,531.562c0,177.678-109.445,301.665-266.158,301.665-154.926,0-271.791-129.623-271.791-301.665,0-172.024,116.865-301.664,271.791-301.664,154.176-.018,266.176,126.822,266.176,301.646l-.018.018ZM6253.97,2472.5c-305.357,0-544.582,235.13-544.582,535.359,0,296.957,237.58,529.619,540.837,529.619,306.442,0,546.4-234.342,546.4-533.417,0-298.042-238.35-531.526-542.674-531.526l.018-.035Zm0,834.994c-162.418,0-284.865-130.5-284.865-303.52,0-173.758,118.213-299.845,281.119-299.845,163.468,0,286.737,130.5,286.737,303.642,0,173.723-119,299.723-282.975,299.723ZM7448.69,2493.22H7199.368V2238.315a16.569,16.569,0,0,0-16.537-16.59H6956.294a16.617,16.617,0,0,0-16.607,16.59V2493.22H6830.749a16.565,16.565,0,0,0-16.5,16.607v194.722a16.577,16.577,0,0,0,16.5,16.607h108.938V3225c0,203.612,101.342,306.845,301.209,306.845,81.271,0,148.7-16.783,212.24-52.815a16.516,16.516,0,0,0,8.364-14.367v-185.43a16.619,16.619,0,0,0-24.01-14.875c-43.646,21.963-85.837,32.095-133,32.095-72.694,0-105.122-33-105.122-106.977V2721.245H7448.69a16.558,16.558,0,0,0,16.52-16.607V2509.933a16.06,16.06,0,0,0-16.274-16.607Zm868.7,1v-31.308c0-92.1,35.314-133.175,114.52-133.175,47.232,0,85.173,9.38,127.662,23.555a16.567,16.567,0,0,0,21.788-15.785V2146.58a16.571,16.571,0,0,0-11.726-15.908c-44.888-13.353-102.322-27.055-188.316-27.055-209.266,0-319.883,117.845-319.883,340.672v47.95h-108.85a16.655,16.655,0,0,0-16.625,16.59v195.72a16.67,16.67,0,0,0,16.625,16.607h108.85v777.156a16.569,16.569,0,0,0,16.521,16.607h226.572a16.633,16.633,0,0,0,16.607-16.607v-777.1h211.54l324.047,776.964c-36.785,81.637-72.959,97.877-122.342,97.877-39.918,0-81.953-11.918-124.934-35.438a17,17,0,0,0-13.194-1.242,16.742,16.742,0,0,0-9.8,8.942l-76.79,168.472a16.478,16.478,0,0,0,7.14,21.438c80.167,43.417,152.531,61.949,241.973,61.949,167.3,0,259.77-77.927,341.285-287.577l393.066-1015.7a16.57,16.57,0,0,0-15.383-22.627H9241.878a16.649,16.649,0,0,0-15.7,11.13L8984.56,3195.562l-264.652-690.619a16.539,16.539,0,0,0-15.469-10.676h-387.1l.052-.051Zm-503.649-1H7587.168a16.631,16.631,0,0,0-16.607,16.607v988.485a16.632,16.632,0,0,0,16.607,16.607H7813.74a16.643,16.643,0,0,0,16.607-16.607V2509.9a16.57,16.57,0,0,0-16.626-16.607Zm-112-450.08c-89.757,0-162.592,72.659-162.592,162.417,0,89.81,72.853,162.558,162.593,162.558a162.488,162.488,0,0,0,.088-324.975h-.089Zm1984.84,767.9c-89.67,0-159.441-72.013-159.441-159.46S9597.82,2491.3,9687.42,2491.3a158.787,158.787,0,0,1,159.443,159.372c0,87.448-70.7,160.37-160.3,160.37Zm.875-303.887c-81.672,0-143.465,64.925-143.465,144.427,0,79.468,61.355,143.518,142.643,143.518,81.654,0,143.518-64.872,143.518-144.428,0-79.467-61.426-143.517-142.625-143.517h-.071Zm35.352,159.914,45.1,63.141h-38.027l-40.6-57.925h-34.91v57.925h-31.832v-167.37h74.637c38.885,0,64.453,19.9,64.453,53.393.174,27.44-15.75,44.205-38.676,50.837h-.141Zm-26.95-75.511h-41.512v52.938h41.512c20.719,0,33.09-10.133,33.09-26.5,0-17.22-12.424-26.442-33.074-26.442h-.016Z" transform="translate(-513.43 -2083.15)" fill="#2ebd59"/>
                              </g>
                            </g>
                            <ellipse id="Elipse_1" data-name="Elipse 1" cx="663" cy="518.5" rx="663" ry="518.5" transform="translate(-162 -60)" fill="#2ebd59"/>
                            <ellipse id="Elipse_2" data-name="Elipse 2" cx="663" cy="518.5" rx="663" ry="518.5" transform="translate(371 -181)" fill="#2ebd59"/>
                            <ellipse id="Elipse_3" data-name="Elipse 3" cx="663" cy="518.5" rx="663" ry="518.5" transform="translate(-162 -60)" fill="#2ebd59"/>
                            <ellipse id="Elipse_4" data-name="Elipse 4" cx="663" cy="518.5" rx="663" ry="518.5" transform="translate(1106 43)" fill="#2ebd59"/>
                            <g id="Elipse_5" data-name="Elipse 5" transform="translate(300 210)" fill="#fff" stroke="#707070" stroke-width="1">
                              <ellipse cx="201" cy="248.5" rx="201" ry="248.5" stroke="none"/>
                              <ellipse cx="201" cy="248.5" rx="200.5" ry="248" fill="none"/>
                            </g>
                            <g id="Elipse_6" data-name="Elipse 6" transform="translate(1164 292)" fill="#fff" stroke="#707070" stroke-width="1">
                              <ellipse cx="201" cy="248.5" rx="201" ry="248.5" stroke="none"/>
                              <ellipse cx="201" cy="248.5" rx="200.5" ry="248" fill="none"/>
                            </g>
                          </g>
                        </g>
                      </g>
                    </g>
                  </g>
                </g>
              </g>
            </g>
          </g>
        </g>
      </g>
    </g>
    <path id="Caminho_1" data-name="Caminho 1" d="M-71.053-618.235S289.254-337.468,724.7-590.372" transform="translate(4174.845 2443.401) rotate(16)" fill="none" stroke="#fff" stroke-linecap="round" stroke-width="100"/>
    <path id="Caminho_2" data-name="Caminho 2" d="M-71.053-618.235S251.82-328.976,642.022-589.53" transform="translate(3354.326 2406.494)" fill="none" stroke="#fff" stroke-linecap="round" stroke-width="100"/>
    <ellipse id="Elipse_7" data-name="Elipse 7" cx="946" cy="312.5" rx="946" ry="312.5" transform="translate(3150 2843)" fill="#2ebd59"/>
    <path id="Caminho_3" data-name="Caminho 3" d="M-71.053-437.456s363.114-380.287,801.948-37.738" transform="translate(3585.674 3571.625) rotate(16)" fill="none" stroke="#fff" stroke-linecap="round" stroke-width="200"/>
  </g>
</svg>
